<?xml version="1.0" encoding="UTF-8"?>
<svg width="1589.4" height="2896.2" version="1.1" viewBox="0 0 1589.3921 2896.2259" xmlns="http://www.w3.org/2000/svg" xmlns:xlink="http://www.w3.org/1999/xlink">
 <defs>
  <marker id="t" overflow="visible" orient="auto">
   <path transform="scale(.8) translate(12.5)" d="m0 0l5-5-17.5 5 17.5 5-5-5z" fill-opacity=".14667" fill-rule="evenodd"/>
  </marker>
  <linearGradient id="c">
   <stop stop-color="#fafafa" offset="0"/>
   <stop stop-color="#d3d3d3" offset=".077549"/>
   <stop stop-color="#808080" offset="1"/>
  </linearGradient>
  <linearGradient id="b">
   <stop stop-color="#fff" offset="0"/>
   <stop stop-color="#3c3c3c" offset=".44265"/>
   <stop stop-color="#797979" offset=".63395"/>
   <stop offset="1"/>
  </linearGradient>
  <radialGradient id="v" cx="980.14" cy="2350.8" r="547.35" gradientTransform="matrix(1.7959 -.07022 .080564 2.0605 -969.52 -2483.1)" gradientUnits="userSpaceOnUse" xlink:href="#b"/>
  <linearGradient id="p" x1="862.34" x2="876.44" y1="2218" y2="2238.1" gradientUnits="userSpaceOnUse" spreadMethod="repeat" xlink:href="#b"/>
  <linearGradient id="q" x1="862.34" x2="856.31" y1="2218" y2="2231.2" gradientUnits="userSpaceOnUse" spreadMethod="repeat" xlink:href="#b"/>
  <radialGradient id="w" cx="1509.1" cy="1037.8" r="279.73" gradientTransform="matrix(1.4226 .022836 -.016517 .46805 -1037.8 999.46)" gradientUnits="userSpaceOnUse" xlink:href="#c"/>
  <radialGradient id="x" cx="1615.9" cy="1149.9" r="358.16" gradientTransform="matrix(2.1659 .0054301 .002424 .25286 -2233.3 1362.7)" gradientUnits="userSpaceOnUse">
   <stop stop-color="#6d6d6d" offset="0"/>
   <stop stop-color="#cacaca" offset="1"/>
  </radialGradient>
  <radialGradient id="y" cx="1509.1" cy="1037.8" r="279.73" gradientTransform="matrix(1.433 .023139 -.01658 .47067 -1052.2 995.52)" gradientUnits="userSpaceOnUse" xlink:href="#c"/>
  <linearGradient id="o" x1="357.35" x2="444.49" y1="288.05" y2="421.87" gradientTransform="matrix(4.6138 0 0 4.6669 -527.97 293.94)" gradientUnits="userSpaceOnUse">
   <stop stop-color="#f5d9d9" offset="0"/>
   <stop stop-color="#f0c8c8" offset="1"/>
  </linearGradient>
  <linearGradient id="r" x1="810.75" x2="1016.1" y1="1738.4" y2="1918.7" gradientTransform="matrix(.99535 0 0 1.1274 4.4655 -216.85)" gradientUnits="userSpaceOnUse">
   <stop stop-color="#803300" offset="0"/>
   <stop stop-color="#692a00" offset="1"/>
  </linearGradient>
  <linearGradient id="s" x1="709.3" x2="1239.2" y1="431.24" y2="727.87" gradientUnits="userSpaceOnUse">
   <stop stop-color="#803300" offset="0"/>
   <stop stop-color="#5c2500" offset="1"/>
  </linearGradient>
 </defs>
 <g transform="translate(-359.99 -1272.7)">
  <ellipse cx="1253.6" cy="2068.1" rx="315.58" ry="157.77" fill="#411a00" stroke="#000" stroke-linecap="round" stroke-linejoin="bevel" stroke-width="7.9188"/>
  <path d="m851.21 2252.5s-399.16 106.31-486.79 187.26c-25.679 119.42 262.8 278.85 262.8 278.85l54.435-105.91-139.19-115.65 347.57-67.971z" fill="#803300" stroke="#1a1a1a" stroke-linecap="round" stroke-linejoin="bevel" stroke-width="5.607"/>
  <ellipse cx="950.22" cy="1834.1" rx="95.116" ry="90.673" fill="#f4d7d7" stroke="#000" stroke-linecap="round" stroke-linejoin="bevel" stroke-width="8.3525"/>
  <ellipse cx="1557.9" cy="1842.4" rx="95.116" ry="90.673" fill="#f4d7d7" stroke="#000" stroke-linecap="round" stroke-linejoin="bevel" stroke-width="8.3525"/>
  <path transform="translate(253.14 1300.1)" d="m851.75 826.62 21.814 56.279c-46.373 15.416-94.478 31.816-94.525 54.242-1.2e-4 17.943 16.48 34.532 44.396 48.01v571.63h386.8v-577.08c21.589-12.397 34.039-26.972 34.039-42.568-0.1055-22.401-54.918-43.803-101.24-59.201l28.525-51.32h-319.81z" fill="#f2cece" stroke="#000" stroke-linecap="round" stroke-width="6.413"/>
  <path d="m1003.7 3033.9s-52.77 423.11-61 475.33c-8.2297 52.225-98.234 489.92-62.026 620.85l208.81-9.5361c24.647-176.29 26.295-504.76 45.94-601.87 50.038-247.36 120.98-369.61 120.98-369.61s78.05 70.163 106.78 346.1c12.454 119.61-18.672 430.4 10.557 619.42h228.53c36.208-130.93-48.228-462.86-64.687-567.31 0 0 5.2088-117.49 26.49-425 1.9965-28.85-4.9418-59.401-1.9426-91.72-163.69-13.515-558.44 3.3406-558.44 3.3406z" fill="#803300" stroke="#000" stroke-linecap="round" stroke-linejoin="bevel" stroke-width="11.233"/>
  <path d="m1361.4 4075.5c0 76.889-16.608 90.332 120.54 90.332 137.15 0 196.7-2.2406 196.7-79.012 0-76.889-38.839-146.82-176-146.82-137.15 0-141.24 58.61-141.24 135.5z" fill="#1a1a1a" stroke="#000" stroke-width="6.1792"/>
  <path d="m1252.1 3226.6c-79.686 69.599-108.05 154.9-117.97 218.43-0.7114 0.035-1.4888 0.2451-2.3398 0.6524 0 0-40.926 127.82-40.926 260.65s-21.461 241.36 4.8496 241.36c26.311 0 8.0006-108.52 18.068-244.71 5.0943-68.913 16.173-138.78 22.301-188.41 73.67-208 73.443-250.76 121.45-279.03l-5.4375-8.9375z" fill-opacity=".24581" fill-rule="evenodd"/>
  <path d="m1535.3 3070.9c-100.34 398.06 64.873 881.92 64.873 881.92l-13.326-184.1c-14.502-85.945-30.542-162.77-37.496-203.79 0 0-33.954-113.61-11.164-419.69 1.7589-23.623-2.9467-48.395-2.8868-74.348z" fill-opacity=".26786" fill-rule="evenodd"/>
  <path d="m1254.1 1616.4c-116.76 0.2584-227.23 22.716-285.48 128.81-58.514 106.35-20.264 185.03 10.445 308.26 30.708 123.23 285.01 180.48 285.01 180.48s201.05-37.902 241.8-163.87c40.75-125.97 91.959-218.52 33.711-324.87-58.252-106.09-168.72-128.55-285.49-128.81z" fill="url(#o)" stroke="#1a1a1a" stroke-linecap="round" stroke-linejoin="bevel" stroke-width="10"/>
  <path d="m901.99 2205.8c-78.734 45.321-218.37 83.864-218.37 83.864l26.444 178.2s198.26-28.276 266.58-92.24c-54.249 77.559-15.971 269.71-15.971 269.71s35.576 527.86-55.172 658.6c3.4346 113.05 113.99 126.04 342.3 112.14 286.62-12.068 324.05 41.559 318.38-52.134 28.97-245.58-15.611-769.91-20.271-979.67 64.875 49.296 59.566 59.947 59.566 59.947l161.16-1.152s-104.69-204.86-176.34-243.59c-22.626-0.1626-117.35-6.7173-145.22 1.1223 0 0-116.3 86.376-184.24 86.315-67.941-0.061-186.41-83.366-186.41-83.366-39.106-1.2516-102.08 2.6299-172.43 2.254z" fill="url(#v)" stroke="#000" stroke-linecap="round" stroke-linejoin="round" stroke-width="11.703"/>
  <g transform="matrix(-.52032 -.42898 -.89105 .3054 1270.6 3115.5)">
   <g transform="translate(5.2157 -.41649)">
    <ellipse cx="392.26" cy="177.62" rx="1.4322" ry="1.4015"/>
    <path d="m392.54 178.26-0.0877 0.31116 2.2059 0.70647-0.12297 0.38558 0.36062 0.0713 0.14828-0.61731z"/>
    <path d="m392.93 177.74-0.0292 0.32197 2.298 0.29011-0.0502 0.40159 0.36759 4e-3 0.0326-0.63403z"/>
    <path d="m392.7 176.94 0.0535 0.31884 2.2964-0.30274 0.0534 0.40118 0.35657-0.0894-0.12942-0.62153z"/>
    <path d="m392.6 176.52 0.1533 0.28464 2.0766-1.026 0.17973 0.36262 0.3088-0.19944-0.32264-0.54677z"/>
    <path d="m392.09 178.03 0.0877 0.31116-2.2059 0.70647 0.12297 0.38558-0.36062 0.0713-0.14828-0.61731z"/>
    <path d="m392.04 177.8-0.0562 0.31837-2.2937-0.32239-0.0568 0.40071-0.35578-0.0925 0.13473-0.62041z"/>
    <path d="m391.47 176.8-0.0336 0.32154-2.3107-0.1595-0.0284 0.40373-0.36144-0.0671 0.0906-0.62837z"/>
    <path d="m392.07 176.58-0.1533 0.28464-2.0766-1.026-0.17973 0.36262-0.3088-0.19944 0.32264-0.54677z"/>
    <ellipse id="u" cx="391.81" cy="178.31" rx=".11328" ry=".10938" fill="#fff"/>
    <g id="a">
     <use width="100%" height="100%" xlink:href="#u"/>
     <ellipse cx="391.83" cy="178.36" rx=".044922" ry=".03125"/>
    </g>
    <use width="100%" height="100%" xlink:href="#a"/>
    <use transform="translate(0 .24062)" width="100%" height="100%" xlink:href="#a"/>
    <use transform="translate(.27188)" width="100%" height="100%" xlink:href="#a"/>
    <use transform="translate(.27188 .24062)" width="100%" height="100%" xlink:href="#a"/>
    <use transform="translate(.54375)" width="100%" height="100%" xlink:href="#a"/>
    <use transform="translate(.54375 .24062)" width="100%" height="100%" xlink:href="#a"/>
    <use transform="translate(.81562)" width="100%" height="100%" xlink:href="#a"/>
    <use transform="translate(.81562 .24062)" width="100%" height="100%" xlink:href="#a"/>
   </g>
  </g>
  <path d="m918.75 2994.7c-11.667 3.9988-11.695 4.0083-11.695 4.0083" fill-rule="evenodd" stroke="#000" stroke-width=".022069"/>
  <path d="m1109.9 4079.3c0 76.193 17.437 89.515-126.56 89.515s-206.51-2.2202-206.51-78.297c0-76.193 40.777-145.49 184.78-145.49 143.99 0 148.29 58.08 148.29 134.27z" fill="#1a1a1a" stroke="#000" stroke-width="6.3028"/>
  <path d="m1396.3 1908.4c-61.662 3.0975-114.67-42.849-114.67-42.849s46.444-73.826 108.11-76.923c61.663-2.8395 122.28 29.169 122.28 29.169s-54.053 87.506-115.72 90.604z" fill="#fff" stroke="#000" stroke-width="4.1641px"/>
  <path d="m1110.6 1907.1c61.662 4.1301 115.19-41.042 115.19-41.042s-45.131-74.342-107.06-78.472c-61.662-3.872-122.8 27.362-122.8 27.362s52.741 88.28 114.67 92.152z" fill="#fff" stroke="#000" stroke-width="4.1641px"/>
  <path transform="translate(359.99 1272.7)" d="m1179 430.62c-1.0505 5e-3 -2.1219 0.0231-3.2129 0.0527-29.462 0.80013-43.483 8.3475-49.721 25.949-54.161-11.529-144.79-18.449-241.81-18.463-161.16-3e-5 -288.45 6.9655-288.45 30.047 8.4e-4 23.082 127.29 53.539 288.45 53.539 94.285-0.013 199.5-26.685 254.19-37.684 0.5345 27.021-0.2545 82.869-0.2545 129.33 0 136.95 12.159 286.57 41.647 286.57s51.715-149.62 51.715-286.57c0-134.81 13.624-183.11-52.553-182.78z" fill="url(#s)" stroke="#000" stroke-linecap="round" stroke-linejoin="bevel" stroke-width="8"/>
  <path d="m911.11 1909.6c0 154.41 23.794 279.58 53.144 279.58s38.113-125.17 38.113-279.58 37.279-203.76-35.751-206.01c-69.501-2.1381-55.506 51.599-55.506 206.01z" fill="url(#r)" stroke="#000" stroke-linecap="round" stroke-linejoin="bevel" stroke-width="8.4748"/>
  <path d="m1590.7 1715.5a350.17 123.58 0 0 1 -336.81 123.49 350.17 123.58 0 0 1 -362.51 -114.07l349.15-9.423z" fill-opacity=".14667" marker-mid="url(#t)"/>
  <g transform="matrix(.99706 -.078089 .070665 1.1018 -106.02 -44.187)" stroke="#000" stroke-miterlimit="10">
   <path d="m1544.3 1650.8c-2.5057-1.6728-5.0095-3.7779-7.184-6.4499-8.1658-10.038-28.862-42.256-40.9-55.943-39.234-52.212-140.05-89.305-258.32-89.305-123.8 0-227.95 39.782-262.88 95.86-13.81 17.425-32.843 46.367-39.841 55.296-1.173 1.4971-2.4821 2.7625-3.8423 3.8587-64.534 8.5938-103.67 19.683-103.46 31.618 0.43961 25.835 184.91 45.842 412.03 44.686 227.12-1.1555 410.88-23.036 410.44-48.871-0.2051-12.03-40.32-22.795-106.05-30.749z" fill="#999" stroke-linecap="round" stroke-width="17.493"/>
   <ellipse transform="matrix(.99999 -.0050845 .017008 .99986 0 0)" cx="1213.4" cy="1688.8" rx="411.26" ry="46.787" fill="url(#x)" stroke-width="2.9157"/>
   <path d="m1617.5 1660.2c13.867 4.7332 21.447 9.853 21.526 15.229 0.3785 26.095-175.78 48.302-393.46 49.601s-394.45-18.803-394.83-44.897c-0.0907-6.252 9.9767-12.28 28.296-17.851-29.376 7.7379-45.936 16.43-45.804 25.542 0.43951 30.286 184.86 53.738 411.91 52.384 227.05-1.3546 410.76-27.004 410.32-57.29-0.1182-8.1915-13.721-15.881-37.962-22.718z" fill="#666" stroke-width="3.1561"/>
   <path d="m920.42 1655.3s11.665-1.2762 18.664-10.205 26.031-37.872 39.841-55.297c34.93-56.078 139.08-95.86 262.88-95.86 118.27 0 219.08 37.094 258.32 89.305 12.038 13.688 32.734 45.905 40.9 55.943 8.1659 10.038 20.998 12.283 20.998 12.283s-56.247 18.032-321.9 19.596c-265.66 1.5647-319.7-15.767-319.7-15.767z" fill="url(#y)" stroke-linecap="round" stroke-width="2.9155"/>
   <path d="m920.37 1655.3s11.58-1.2705 18.529-10.151c6.9489-8.8802 25.847-37.664 39.558-54.994 34.683-55.77 138.08-95.343 260.98-95.358 117.41-0.014 217.48 36.86 256.43 88.777 11.949 13.61 32.491 45.646 40.596 55.627 8.1052 9.9813 20.844 12.212 20.844 12.212s-55.84 17.938-319.56 19.527c-263.72 1.5883-317.37-15.64-317.37-15.64z" fill="url(#w)" stroke-linecap="round" stroke-width="2.8967"/>
  </g>
  <path transform="translate(359.99 1272.7)" d="m337.56 1128.3s-152.12 48.879-178.15 81.661c-26.028 32.783 107.65 126.02 107.65 126.02l24.319-21.124-108.91-90.494 163.82-61.273z" fill-opacity=".18667"/>
  <path d="m1376.1 1893.7c-21.779 1.0329-40.146-13.423-41.196-32.524-1.05-18.844 15.482-35.106 37.26-36.138 21.516-1.0329 39.884 13.423 40.933 32.266 1.0501 19.102-15.481 35.363-36.997 36.396z" fill="#000080" stroke="#000" stroke-width="3.6435px"/>
  <path d="m1302.7 1993.8c0-12.184-11.259-23.651-29.157-29.743-18.187-6.092-40.416-6.092-58.603 0-17.897 6.0919-29.155 17.559-29.155 29.743" fill="none" stroke="#000" stroke-linecap="round" stroke-linejoin="bevel" stroke-width="6.111px"/>
  <path d="m1130.2 1893.7c21.517 1.2906 40.146-12.907 41.458-31.749 1.5742-19.102-14.956-35.622-36.472-36.913-21.779-1.2906-40.146 12.906-41.721 31.75-1.3117 18.844 15.219 35.363 36.735 36.912z" fill="#000080" stroke="#000" stroke-width="3.6435px"/>
  <path d="m1207.2 2104.6c140.68-5.0777 141.99-5.0777 141.99-5.0777" fill="none" stroke="#000" stroke-width="7.1121"/>
  <path transform="matrix(.99064 .13647 .13647 -.99064 0 0)" d="m1454.4-1628.9a92.547 7.119 0 0 1 -89.016 7.1138 92.547 7.119 0 0 1 -95.808 -6.571l92.278-0.5428z" fill="#411a00" stroke="#000" stroke-linecap="round" stroke-linejoin="bevel" stroke-width=".5"/>
  <path transform="matrix(.98656 -.1634 -.1634 -.98656 0 0)" d="m1181.2-1996a92.547 7.119 0 0 1 -89.016 7.1138 92.547 7.119 0 0 1 -95.808 -6.571l92.278-0.5428z" fill="#411a00" stroke="#000" stroke-linecap="round" stroke-linejoin="bevel" stroke-width=".5"/>
 </g>
 <g transform="translate(47.174 126.45)" opacity=".504">
  <path transform="translate(-407.17 -1399.2)" d="m901.99 2205.8c-78.734 45.321-218.37 83.864-218.37 83.864l26.444 178.2s198.26-28.276 266.58-92.24c-55.303 80.275-15.6 272.27-15.6 272.27s47.89 530.69-55.542 656.03c3.4346 113.05 113.99 126.04 342.3 112.14 286.62-12.068 324.05 41.559 318.38-52.134 28.97-245.58-15.611-769.91-20.271-979.67 64.875 49.296 59.566 59.947 59.566 59.947l161.16-1.152s-104.69-204.86-176.34-243.59c-22.626-0.1626-117.35-6.7173-145.22 1.1223 0 0-116.3 86.376-184.24 86.315-67.941-0.061-186.41-83.366-186.41-83.366-39.106-1.2516-102.08 2.6299-172.43 2.254z" fill="url(#p)" stroke="#000" stroke-linecap="round" stroke-linejoin="round" stroke-width="11.703"/>
 </g>
 <g transform="translate(47.174 126.45)" opacity=".5">
  <path transform="translate(-407.17 -1399.2)" d="m901.99 2205.8c-78.734 45.321-218.37 83.864-218.37 83.864l26.444 178.2s198.26-28.276 266.58-92.24c-60.578 76.579-14.353 274.8-14.353 274.8s52.879 486.25-56.789 653.5c3.4346 113.05 113.99 126.04 342.3 112.14 286.62-12.068 324.05 41.559 318.38-52.134 28.97-245.58-15.611-769.91-20.271-979.67 64.875 49.296 59.566 59.947 59.566 59.947l161.16-1.152s-104.69-204.86-176.34-243.59c-22.626-0.1626-117.35-6.7173-145.22 1.1223 0 0-116.3 86.376-184.24 86.315-67.941-0.061-186.41-83.366-186.41-83.366-39.106-1.2516-102.08 2.6299-172.43 2.254z" fill="url(#q)" opacity=".504" stroke="#000" stroke-linecap="round" stroke-linejoin="round" stroke-width="11.703"/>
 </g>
 <g transform="translate(47.174 126.45)">
  <g transform="matrix(-5.5709 11.086 -10.397 -4.58 9341.4 2069.2)" fill="#deaa87">
   <g transform="matrix(.95365 -.27172 .26414 .97335 -181.39 87.689)" fill="#deaa87" stroke="#000">
    <path d="m239.62 685.95c2.36 1.31 4.275 2.852 4.715 3.7413 1.9 3.77 1.0727 3.7587 1.3463 8.2252-0.84 1.4-1.0791 3.9257-1.8791 6.2957-0.37 1.09-3.0593 2.1526-5.0693 2.1126-0.63-0.01-1.38 0.39-2.08 0.47-1.11 0.11-2.2778-0.26722-3.0678-0.28722-6.233-1.982-0.61968-6.0793-1.4424-5.2076 1.04-4.43 0.15421-4.846-0.30753-7.1892-0.42 1.32 1.0628 3.5844 0.38557 5.837-0.6646 1.0368-0.42522 2.6581-2.0952 1.4181-1.6222-5.4704-4.7941-8.65 2.8059-13.727" stroke-linecap="round" stroke-linejoin="round" stroke-width=".96927"/>
    <path d="m239.9 696.85-0.61865 4.6414-3.7997 5.2881" stroke-width=".93446px"/>
    <path d="m242.67 697.02-0.38935 4.3474-2.8142 4.8362" stroke-width="1px"/>
    <path d="m236.5 696.65-0.66 5.26-3.9617 4.3856" stroke-width="1px"/>
   </g>
  </g>
  <path d="m1250.1 1029.7 2.8331 315.11-366.67-13.443-2.2676 142.29s400.37 58.107 484.84 19.998c84.469-38.109 23.019-468.16 23.019-468.16z" fill="#803300" stroke="#1a1a1a" stroke-linecap="round" stroke-linejoin="bevel" stroke-width="5.9295"/>
  <rect transform="matrix(.002889 -1 .99648 .083785 0 0)" x="-1407.2" y="881.44" width="161.5" height="55.518" fill="#fff" stroke="#000" stroke-linecap="round" stroke-width="8.7514"/>
  <rect transform="matrix(.99932 -.036875 -.040304 .99919 0 0)" x="1294.5" y="1074.8" width="161.04" height="55.531" fill="#fff" stroke="#000" stroke-linecap="round" stroke-width="8.7399"/>
  <rect x="631.9" y="883.25" width="907.43" height="1468.2" rx="453.71" ry="75.325" fill="#808080" stroke="#000" stroke-linecap="round" stroke-width="5.7745"/>
  <rect x="696.31" y="940.45" width="778.62" height="1353.9" rx="389.31" ry="57.082" fill="#fff" stroke="#000" stroke-linecap="round" stroke-width="5.7745"/>
  <rect x="658.51" y="956.64" width="17.255" height="17.255" ry="5.0094" fill="#fff" stroke="#000" stroke-linecap="round" stroke-width="5.7745"/>
  <rect x="1306.5" y="915.38" width="17.255" height="17.255" ry="5.0094" fill="#fff" stroke="#000" stroke-linecap="round" stroke-width="5.7745"/>
  <rect x="1306.5" y="2303" width="17.255" height="17.255" ry="5.0094" fill="#fff" stroke="#000" stroke-linecap="round" stroke-width="5.7745"/>
  <rect x="851.06" y="2303" width="17.255" height="17.255" ry="5.0094" fill="#fff" stroke="#000" stroke-linecap="round" stroke-width="5.7745"/>
  <rect x="851.06" y="912.32" width="17.255" height="17.255" ry="5.0094" fill="#fff" stroke="#000" stroke-linecap="round" stroke-width="5.7745"/>
  <rect x="658.51" y="1217.7" width="17.255" height="17.255" ry="5.0094" fill="#fff" stroke="#000" stroke-linecap="round" stroke-width="5.7745"/>
  <rect x="658.51" y="1478.7" width="17.255" height="17.255" ry="5.0094" fill="#fff" stroke="#000" stroke-linecap="round" stroke-width="5.7745"/>
  <rect x="658.51" y="1739.7" width="17.255" height="17.255" ry="5.0094" fill="#fff" stroke="#000" stroke-linecap="round" stroke-width="5.7745"/>
  <rect x="658.51" y="2000.7" width="17.255" height="17.255" ry="5.0094" fill="#fff" stroke="#000" stroke-linecap="round" stroke-width="5.7745"/>
  <rect x="658.51" y="2261.8" width="17.255" height="17.255" ry="5.0094" fill="#fff" stroke="#000" stroke-linecap="round" stroke-width="5.7745"/>
  <rect x="1496" y="956.64" width="17.255" height="17.255" ry="5.0094" fill="#fff" stroke="#000" stroke-linecap="round" stroke-width="5.7745"/>
  <rect x="1496" y="1217.7" width="17.255" height="17.255" ry="5.0094" fill="#fff" stroke="#000" stroke-linecap="round" stroke-width="5.7745"/>
  <rect x="1496" y="1478.7" width="17.255" height="17.255" ry="5.0094" fill="#fff" stroke="#000" stroke-linecap="round" stroke-width="5.7745"/>
  <rect x="1496" y="1739.7" width="17.255" height="17.255" ry="5.0094" fill="#fff" stroke="#000" stroke-linecap="round" stroke-width="5.7745"/>
  <rect x="1496" y="2000.7" width="17.255" height="17.255" ry="5.0094" fill="#fff" stroke="#000" stroke-linecap="round" stroke-width="5.7745"/>
  <rect x="1496" y="2261.8" width="17.255" height="17.255" ry="5.0094" fill="#fff" stroke="#000" stroke-linecap="round" stroke-width="5.7745"/>
  <rect x="1077" y="2319.6" width="17.255" height="17.255" ry="5.0094" fill="#fff" stroke="#000" stroke-linecap="round" stroke-width="5.7745"/>
  <path d="m1173.5 941.95 25.67 1349.9c72.746-3.2279 136.26-9.4748 184-17.764l-12.812-1315.4c-51.91-8.1671-119.87-14.079-196.85-16.67z" fill="#520" stroke="#000" stroke-linecap="round" stroke-width="5.7745"/>
  <path d="m975.39 942.8c-79.78 3.4268-148.56 10.478-197.98 19.872l46.456 1316.8c51.545 6.8677 115.53 11.747 186.84 13.771l-35.313-1350.4z" fill="#520" stroke="#000" stroke-linecap="round" stroke-width="5.7745"/>
  <path d="m1085.6 940.45c-38.348 0-75.274 0.8446-110.22 2.3459l35.313 1350.4c24.245 0.6878 49.254 1.0712 74.911 1.0712 39.557 0 77.657-0.876 113.57-2.4698l-25.67-1349.9c-28.272-0.9511-57.608-1.4999-87.904-1.4999z" fill="#520" stroke="#000" stroke-linecap="round" stroke-width="5.7745"/>
  <path d="m777.41 962.67c-50.696 9.6365-81.103 21.696-81.103 34.862v1170.4c2.0756 32.635 1.3723 45.313 3.7848 77.049 32.774 18.456 81.942 28.864 123.77 34.437z" fill="#520" stroke="#000" stroke-linecap="round" stroke-width="5.7745"/>
  <path d="m1370.4 958.62 12.812 1315.4c72.042-15.721 74.596-21.564 89.252-26.202 2.2321-39.282 2.0553-58.557 2.4864-100.41v-1149.9c0-15.085-39.814-28.725-104.55-38.91z" fill="#520" stroke="#000" stroke-linecap="round" stroke-width="5.7745"/>
  <g transform="translate(-407.17 -1399.2)" stroke="#000">
   <path d="m833.14 2429.3 1.0482-1017.9-55.904-136.86-69.351 138.14-0.30606 1019.2" fill="#f2f2f2" stroke-linecap="round" stroke-linejoin="bevel" stroke-width="8.2723"/>
   <path d="m771.27 1408.6 0.18718 1020.5" fill="none" stroke-width="3.854"/>
   <path d="m625.9 2426.1 330.66 7.1108 2.3843 95.432c-41.722-3.833-84.976-10.055-134.83-6.7667l-6.4665 9.7865-2.3119 245-104.43-0.9855 2.3118-245-5.2115-7.7443-70.478-1.5618-17.34 6.5252z" fill="#784421" stroke-linecap="round" stroke-linejoin="bevel" stroke-width="8.1569"/>
   <path transform="matrix(.42671 -.90439 -.71303 -.70114 0 0)" d="m-1355.6-1711.3a58.926 49.69 0 0 1 -40.116 59.038 58.926 49.69 0 0 1 -72.38 -30.077 58.926 49.69 0 0 1 31.08 -62.794" fill="#784421" stroke-linecap="round" stroke-linejoin="bevel" stroke-width="6.7683"/>
   <path transform="matrix(-.34928 -.93702 .80655 -.59117 0 0)" d="m-2597.8 5.0371a58.286 50.117 0 0 1 -39.681 59.546 58.286 50.117 0 0 1 -71.593 -30.336 58.286 50.117 0 0 1 30.742 -63.334" fill="#784421" stroke-linecap="round" stroke-linejoin="bevel" stroke-width="6.7603"/>
  </g>
  <rect x="1081.6" y="898.6" width="17.255" height="17.255" ry="5.0094" fill="#fff" stroke="#000" stroke-linecap="round" stroke-width="5.7745"/>
  <g transform="translate(-407.17 -1399.2)" stroke="#000" stroke-linecap="round" stroke-linejoin="bevel">
   <path transform="matrix(-.87202 -.48947 -.68751 .72618 0 0)" d="m-2493.3 2128.7a59.165 52.287 0 0 1 -50.884 51.772 59.165 52.287 0 0 1 -65.127 -37.281 59.165 52.287 0 0 1 32.655 -62.208" fill="#784421" stroke-width="6.957"/>
   <path transform="matrix(-.99873 -.050326 -.46017 .88783 0 0)" d="m-1978.5 2744.3a50.995 27.171 0 0 1 -58.523 19.694 50.995 27.171 0 0 1 -41.458 -29.534" fill="none" stroke-width="8.9947"/>
   <path transform="matrix(-.99889 -.047103 -.4573 .88931 0 0)" d="m-2084.5 3001.8a50.995 27.171 0 0 1 -58.523 19.694 50.995 27.171 0 0 1 -41.458 -29.534" fill="none" stroke-width="8.9947"/>
   <path d="m812.19 2652.8c0.5552-59.154 0.85117-107.64 0.6577-107.76-0.19365-0.1115-1.4689 0.6061-2.8343 1.5945-13.156 9.5238-39.049 15.328-61.08 13.693-11.801-0.8758-22.802-3.6105-29.084-7.2297-1.6031-0.9235-2.337-1.0595-2.4318-0.45-0.0742 0.4803-0.5836 48.633-1.1309 107.01-0.54726 58.373-1.1612 106.62-1.3643 107.21-0.20286 0.5906 0.42974 2.3608 1.4064 3.9346 1.65 2.6588 2.2507 3.1123 8.4848 6.4053 7.6173 4.0233 14.398 5.7321 25.385 6.3959 14.227 0.8596 33.33-2.207 43.946-7.0545 7.5421-3.4438 11.046-6.2952 14.255-11.6l2.7803-4.5958 1.0094-107.55z" fill="#b46f57" stroke-width=".43253"/>
   <path transform="matrix(-.99873 -.050326 -.46017 .88783 0 0)" d="m-2015.7 2824.8a50.995 27.171 0 0 1 -58.523 19.694 50.995 27.171 0 0 1 -41.458 -29.534" fill="none" stroke-width="8.9947"/>
   <path transform="matrix(-.99889 -.047103 -.4573 .88931 0 0)" d="m-2050.8 2921.3a50.995 27.171 0 0 1 -58.523 19.694 50.995 27.171 0 0 1 -41.458 -29.534" fill="none" stroke-width="8.9947"/>
  </g>
  <g transform="matrix(4.2865 11.643 10.847 -3.3795 -8250.4 978.12)" fill="#f2cece">
   <g transform="matrix(.95365 -.27172 .26414 .97335 -182.56 51.876)" fill="#f2cece">
    <g transform="translate(-7.5417 35.041)" fill="#f2cece" stroke="#000">
     <path d="m239.62 685.95c2.36 1.31 4.275 2.852 4.715 3.7413 1.9 3.77 1.0727 3.7587 1.3463 8.2252-0.84 1.4-1.0791 3.9257-1.8791 6.2957-0.37 1.09-3.0593 2.1526-5.0693 2.1126-0.63-0.01-1.38 0.39-2.08 0.47-1.11 0.11-2.2778-0.26722-3.0678-0.28722-6.233-1.982-0.61968-6.0793-1.4424-5.2076 1.04-4.43 0.40413-4.6674-0.0576-7.0106-0.77097-0.43677-1.5416-0.66194-3.3259-0.29482 0 0-3.4278-1.2787 4.1722-6.3555" stroke-linecap="round" stroke-linejoin="round" stroke-width=".96927"/>
     <path d="m239.9 696.85-0.61865 4.6414-3.7997 5.2881" stroke-width=".93446px"/>
     <path d="m242.67 697.02-0.38935 4.3474-2.8142 4.8362" stroke-width="1px"/>
     <path d="m236.5 696.65-0.66 5.26-3.9617 4.3856" stroke-width="1px"/>
    </g>
   </g>
  </g>
  <rect transform="matrix(.31917 -.9477 .91791 .39679 0 0)" x="-1128.7" y="585.27" width="143.67" height="51.513" fill="#803300" stroke="#000" stroke-linecap="round" stroke-width="7.9508"/>
  <path d="m429.58 25.9-6.5581 129.61 1.7438 870.16-16.71-1.4602s1.5362-781.47 7.322-969.24c5.7858-24.033 14.202-29.063 14.202-29.063z" fill-opacity=".18"/>
 </g>
</svg>
